<svg width="586" height="435" viewBox="0 0 586 435" fill="none" xmlns="http://www.w3.org/2000/svg">
<g clip-path="url(#clip0)">
<path d="M421.691 258.113L426.301 255.27C426.739 254.993 427.171 254.696 427.615 254.419C417.728 252.72 408.718 247.697 402.077 240.182C395.435 232.667 391.56 223.11 391.094 213.094C390.755 206.206 392.058 199.336 394.895 193.049C397.537 187.167 401.438 181.936 406.323 177.724C411.207 173.512 416.957 170.423 423.166 168.674L422.937 186.807L432.904 167.07C432.945 167.064 432.986 167.064 433.027 167.07C438.803 166.8 444.575 167.671 450.014 169.631C455.453 171.591 460.452 174.602 464.727 178.494C469.001 182.385 472.467 187.079 474.926 192.309C477.385 197.539 478.789 203.202 479.058 208.974C479.095 209.813 479.058 210.64 479.058 211.441C482.527 207.488 485.674 203.251 487.76 198.606C491.981 189.2 492.08 178.548 491.728 165.602C491.061 139.944 489.957 114.094 488.513 88.319C478.107 87.164 468.454 82.3381 461.288 74.7083C454.122 67.0785 449.914 57.145 449.418 46.6923C449.356 45.3415 449.375 44.0155 449.418 42.6955C449.418 42.3686 449.418 42.0356 449.467 41.7087C449.554 40.4319 449.671 39.1675 449.869 37.9216C449.869 37.7119 449.943 37.5146 449.98 37.3048C450.161 36.2481 450.377 35.2037 450.628 34.1716C450.726 33.7892 450.819 33.4006 450.924 33.0182C451.232 31.8957 451.541 30.7916 451.967 29.6999C452.096 29.336 452.251 28.9844 452.386 28.6267C452.701 27.8249 453.041 27.0354 453.398 26.2521C453.59 25.8388 453.775 25.4318 453.979 25.0185C454.028 24.9137 454.071 24.8088 454.127 24.7039C458.773 15.5314 466.489 8.2761 475.932 4.19925C485.376 0.122407 495.95 -0.518228 505.817 2.38871L505.521 25.9869L515.395 6.49649C523.494 11.1299 529.898 18.2301 533.673 26.7599C537.448 35.2898 538.395 44.8025 536.377 53.9087H536.426C536.358 54.2232 536.259 54.5255 536.185 54.8338C536.05 55.4136 535.901 55.9872 535.741 56.5608C535.531 57.2948 535.297 58.0165 535.056 58.7381C534.871 59.2747 534.692 59.8236 534.488 60.3541C534.192 61.1312 533.871 61.8899 533.513 62.6485C533.316 63.0926 533.137 63.5428 532.896 63.9808C532.332 65.1156 531.715 66.2258 531.045 67.3114C530.816 67.6876 530.557 68.0454 530.317 68.4216C529.847 69.1494 529.372 69.871 528.86 70.5742C528.545 71.0059 528.206 71.4192 527.873 71.8447C527.391 72.4615 526.898 73.0783 526.385 73.6396C526.021 74.0528 525.651 74.4599 525.268 74.8732C524.732 75.4406 524.176 75.9895 523.602 76.5323C523.226 76.8962 522.843 77.2601 522.448 77.6055C521.8 78.1791 521.121 78.7281 520.436 79.2647C520.091 79.536 519.758 79.8198 519.4 80.0788C518.359 80.8518 517.283 81.5776 516.172 82.2561C515.962 82.3794 515.74 82.4843 515.555 82.6076C514.629 83.1566 513.704 83.6685 512.71 84.1496C512.297 84.3531 511.865 84.532 511.439 84.7232C510.643 85.0809 509.84 85.4263 509.02 85.7409C508.544 85.9198 508.057 86.0863 507.569 86.2528C506.761 86.5304 505.94 86.7832 505.101 87.0115C504.607 87.1471 504.12 87.2828 503.62 87.4C502.719 87.6159 501.799 87.7948 500.874 87.949C500.812 87.949 500.756 87.949 500.695 87.986C501.304 98.8578 501.845 109.736 502.318 120.62C504.943 115.234 508.641 110.442 513.185 106.536C517.73 102.63 523.025 99.6928 528.746 97.9053C534.466 96.1178 540.492 95.5173 546.454 96.1407C552.415 96.7641 558.186 98.5982 563.413 101.531L555.631 122.84L571.639 107.476C580.208 115.326 585.313 126.253 585.833 137.859C586.036 141.932 585.66 146.012 584.716 149.979C582.705 158.563 578.159 166.345 571.668 172.315C565.178 178.285 557.042 182.168 548.316 183.46C539.59 184.752 530.677 183.393 522.734 179.56C514.79 175.727 508.182 169.596 503.768 161.963C503.768 163.067 503.848 164.177 503.879 165.281C504.169 176.704 504.533 190.915 498.837 203.608C494.98 212.212 488.766 219.201 482.625 225.461C478.633 229.538 474.492 233.479 470.246 237.297C466.071 242.9 460.622 247.428 454.349 250.509C447.375 255.879 440.155 260.908 432.688 265.595L428.152 268.519C423.962 271.115 419.667 273.78 415.452 276.537C416.192 276.463 416.927 276.383 417.68 276.352C427.009 275.915 436.237 278.454 444.028 283.601C451.82 288.749 457.773 296.239 461.026 304.989L433.515 327.372L463.754 320.359C463.746 327.8 461.85 335.117 458.245 341.627C454.64 348.137 449.442 353.628 443.138 357.586C436.834 361.544 429.629 363.84 422.196 364.26C414.763 364.68 407.345 363.21 400.635 359.988C401.313 360.839 401.998 361.684 402.677 362.529C404.029 364.213 405.374 365.884 406.689 367.543C424.585 390.198 429.571 411.711 420.703 428.111L409.928 422.289C418.568 406.327 405.609 385.899 397.074 375.13C395.784 373.501 394.463 371.861 393.13 370.195C381.695 356.009 368.736 339.899 369.063 320.156C369.526 290.427 398.462 272.497 421.691 258.113Z" fill="#F2F2F2"/>
<path d="M281.099 434.649C436.345 434.649 562.198 428.85 562.198 421.697C562.198 414.544 436.345 408.745 281.099 408.745C125.852 408.745 0 414.544 0 421.697C0 428.85 125.852 434.649 281.099 434.649Z" fill="#3F3D56"/>
<path d="M508.193 416.868C510.044 413.469 507.946 409.306 505.551 406.271C503.157 403.237 500.238 400.103 500.3 396.224C500.386 390.673 506.28 387.398 510.995 384.456C514.486 382.27 517.707 379.68 520.591 376.74C521.801 375.608 522.802 374.272 523.547 372.792C524.516 370.621 524.491 368.154 524.429 365.773C524.224 357.854 523.833 349.942 523.257 342.039" stroke="#3F3D56" stroke-width="4" stroke-miterlimit="10"/>
<path d="M532.212 341.62C532.143 340.171 531.711 338.762 530.957 337.523C530.202 336.284 529.148 335.254 527.892 334.527L525.954 338.363L526.01 333.725C524.685 333.328 523.283 333.255 521.924 333.512C520.564 333.77 519.286 334.349 518.198 335.203C517.109 336.056 516.242 337.159 515.668 338.417C515.094 339.675 514.832 341.053 514.902 342.434C515.01 344.724 516.024 346.878 517.72 348.421C518.56 349.185 519.543 349.776 520.611 350.16C521.68 350.545 522.814 350.715 523.949 350.662C525.083 350.608 526.196 350.332 527.224 349.849C528.252 349.366 529.174 348.685 529.939 347.845C530.703 347.005 531.295 346.023 531.679 344.955C532.064 343.887 532.235 342.754 532.181 341.62H532.212Z" fill="#57B793"/>
<path d="M516.765 400.214C515.858 401.975 514.373 403.371 512.559 404.167C510.745 404.964 508.712 405.113 506.801 404.59C504.89 404.067 503.217 402.904 502.062 401.294C500.907 399.685 500.341 397.728 500.459 395.751C500.576 393.774 501.369 391.898 502.706 390.436C504.043 388.974 505.842 388.016 507.802 387.723C509.761 387.429 511.762 387.817 513.469 388.823C515.176 389.828 516.486 391.389 517.178 393.245L511.772 397.642L517.721 396.261C517.722 397.636 517.394 398.991 516.765 400.214V400.214Z" fill="#57B793"/>
<path d="M512.49 383.382C511.353 383.437 510.217 383.267 509.147 382.882C508.076 382.496 507.093 381.904 506.252 381.137C505.412 380.371 504.731 379.447 504.248 378.417C503.766 377.387 503.492 376.272 503.443 375.136C503.374 373.781 503.63 372.43 504.189 371.195C504.708 370.038 505.474 369.008 506.434 368.179C507.393 367.35 508.523 366.741 509.743 366.396L509.7 369.967L511.663 366.081C513.958 365.974 516.202 366.783 517.901 368.329C519.6 369.876 520.615 372.034 520.722 374.328C520.829 376.622 520.02 378.865 518.473 380.563C516.925 382.261 514.767 383.275 512.471 383.382H512.49Z" fill="#57B793"/>
<path d="M533.514 369.375C531.222 369.483 528.982 368.677 527.285 367.134C525.589 365.591 524.575 363.437 524.467 361.147C524.359 358.857 525.165 356.618 526.709 354.922C528.253 353.227 530.408 352.213 532.699 352.105C534.319 352.025 535.928 352.406 537.34 353.203L535.809 357.397L538.957 354.375C540.646 355.918 541.653 358.067 541.758 360.352C541.798 361.152 541.723 361.953 541.536 362.732C541.104 364.561 540.087 366.199 538.639 367.398C537.192 368.597 535.392 369.291 533.514 369.375V369.375Z" fill="#57B793"/>
<path opacity="0.1" d="M531.044 343.902C529.045 344.124 527.101 344.747 525.095 344.87C523.09 344.994 520.887 344.513 519.615 342.952C518.93 342.113 518.591 341.052 518.011 340.14C517.464 339.287 516.716 338.581 515.832 338.086C515.31 339.177 515.023 340.367 514.99 341.577C514.957 342.786 515.178 343.99 515.641 345.108C516.103 346.227 516.795 347.236 517.673 348.07C518.55 348.904 519.593 349.544 520.734 349.949C521.875 350.354 523.089 350.515 524.296 350.421C525.503 350.327 526.678 349.981 527.742 349.404C528.807 348.828 529.738 348.034 530.476 347.074C531.214 346.115 531.742 345.011 532.026 343.834C531.692 343.846 531.365 343.871 531.044 343.902Z" fill="black"/>
<path opacity="0.1" d="M533.513 369.375C532.019 369.451 530.532 369.138 529.195 368.467C527.859 367.795 526.72 366.789 525.889 365.545C525.059 364.302 524.566 362.865 524.458 361.374C524.35 359.883 524.632 358.389 525.274 357.04C525.962 357.504 526.553 358.096 527.015 358.785C527.632 359.716 528.002 360.79 528.73 361.647C530.076 363.232 532.384 363.75 534.476 363.651C536.568 363.553 538.58 362.967 540.647 362.776C540.931 362.776 541.227 362.726 541.517 362.72C541.088 364.548 540.075 366.187 538.631 367.388C537.186 368.589 535.39 369.287 533.513 369.375Z" fill="black"/>
<path opacity="0.1" d="M512.49 383.382C511.353 383.437 510.217 383.267 509.147 382.882C508.076 382.496 507.093 381.904 506.252 381.137C505.412 380.371 504.731 379.447 504.248 378.417C503.766 377.387 503.492 376.272 503.443 375.136C503.374 373.782 503.63 372.43 504.189 371.195C504.908 371.664 505.535 372.26 506.041 372.953C506.713 373.902 507.133 374.994 507.892 375.87C509.355 377.498 511.811 378.072 514.026 378.016C516.242 377.961 518.235 377.443 520.37 377.282C519.843 378.985 518.804 380.485 517.394 381.576C515.984 382.668 514.271 383.298 512.49 383.382Z" fill="black"/>
<path opacity="0.1" d="M516.766 400.214C516.3 401.251 515.634 402.185 514.807 402.964C513.979 403.744 513.007 404.352 511.944 404.756C510.881 405.159 509.749 405.35 508.613 405.316C507.477 405.282 506.358 405.025 505.321 404.56C504.284 404.094 503.349 403.429 502.57 402.602C501.79 401.775 501.181 400.803 500.777 399.74C500.373 398.678 500.183 397.547 500.217 396.411C500.25 395.276 500.508 394.158 500.974 393.121C501.685 393.594 502.325 394.165 502.874 394.817C503.695 395.823 504.238 396.958 505.195 397.901C506.966 399.635 509.823 400.369 512.366 400.418C513.835 400.437 515.304 400.369 516.766 400.214V400.214Z" fill="black"/>
<path d="M495.135 412.951C495.135 412.951 501.966 412.741 504.028 411.273C506.089 409.805 514.519 408.054 515.055 410.41C515.592 412.766 525.331 422.129 517.61 422.166C509.89 422.203 499.677 420.932 497.622 419.699C495.567 418.465 495.135 412.951 495.135 412.951Z" fill="#656380"/>
<path opacity="0.2" d="M517.746 421.345C510.032 421.407 499.813 420.112 497.758 418.878C496.196 417.928 495.567 414.505 495.363 412.926H495.135C495.135 412.926 495.567 418.434 497.603 419.711C499.64 420.988 509.872 422.227 517.592 422.178C519.82 422.178 520.591 421.364 520.548 420.192C520.258 420.889 519.406 421.333 517.746 421.345Z" fill="black"/>
<path d="M119.975 397.84C115.495 389.55 120.593 379.398 126.418 372.009C132.244 364.62 139.378 356.935 139.223 347.516C139.001 333.984 124.635 325.997 113.156 318.824C104.639 313.5 96.7816 307.188 89.7488 300.018C86.9286 297.137 84.1947 294.066 82.5532 290.39C80.1834 285.098 80.2451 279.084 80.3994 273.286C80.8931 253.961 81.8476 234.672 83.2629 215.42" stroke="#3F3D56" stroke-width="4" stroke-miterlimit="10"/>
<path d="M61.4334 214.365C61.6024 210.834 62.6561 207.403 64.4978 204.385C66.3396 201.368 68.9102 198.861 71.9738 197.095L76.701 206.439L76.559 195.128C80.8536 193.863 85.4391 193.995 89.6536 195.505C93.8682 197.014 97.4935 199.824 100.006 203.527C102.519 207.231 103.789 211.637 103.633 216.108C103.477 220.58 101.903 224.887 99.1386 228.407C96.374 231.926 92.5617 234.477 88.2522 235.689C83.9428 236.902 79.3591 236.715 75.1631 235.154C70.9671 233.594 67.376 230.741 64.9081 227.007C62.4403 223.274 61.2235 218.853 61.4334 214.384V214.365Z" fill="#57B793"/>
<path d="M99.0906 357.188C101.214 361.323 104.644 364.641 108.848 366.628C113.052 368.614 117.795 369.157 122.339 368.173C126.884 367.188 130.976 364.731 133.98 361.183C136.984 357.635 138.731 353.195 138.95 348.553C139.098 345.634 138.629 342.717 137.574 339.992C136.032 335.994 133.31 332.56 129.768 330.146C126.227 327.732 122.034 326.452 117.748 326.477C113.461 326.502 109.283 327.83 105.77 330.285C102.257 332.739 99.574 336.205 98.0785 340.22L111.266 350.939L96.7578 347.566C96.7518 350.914 97.5519 354.214 99.0906 357.188Z" fill="#57B793"/>
<path d="M109.514 316.221C114.692 316.457 119.775 314.783 123.797 311.516C127.819 308.249 130.499 303.618 131.326 298.505C132.153 293.391 131.07 288.152 128.283 283.785C125.495 279.418 121.198 276.228 116.21 274.822L116.321 283.513L111.569 274.057H111.514C105.919 273.796 100.449 275.768 96.3081 279.537C92.1672 283.307 89.6942 288.566 89.4331 294.158C89.1721 299.75 91.1443 305.217 94.9161 309.356C98.6878 313.494 103.95 315.966 109.545 316.227L109.514 316.221Z" fill="#57B793"/>
<path d="M58.2557 282.131C61.5247 282.29 64.786 281.688 67.7821 280.371C70.7783 279.055 73.4273 277.06 75.52 274.545C77.6128 272.03 79.092 269.064 79.8409 265.879C80.5898 262.695 80.588 259.38 79.8355 256.197C79.0829 253.013 77.6004 250.048 75.5048 247.536C73.4093 245.023 70.758 243.032 67.7604 241.719C64.7628 240.405 61.5008 239.807 58.232 239.97C54.9631 240.132 51.7769 241.052 48.9248 242.657L52.6275 252.877L44.9814 245.494C42.9374 247.353 41.2803 249.597 40.1049 252.097C38.9294 254.596 38.2588 257.303 38.1313 260.063C38.0333 262.015 38.2141 263.971 38.6682 265.873C39.7179 270.344 42.1985 274.351 45.7336 277.285C49.2687 280.219 53.6652 281.921 58.2557 282.131V282.131Z" fill="#57B793"/>
<path opacity="0.1" d="M64.2723 219.99C69.1476 220.527 73.8871 222.038 78.7747 222.34C83.6623 222.642 89.0374 221.477 92.1292 217.677C93.7954 215.629 94.6285 213.039 96.0356 210.806C97.3688 208.726 99.1963 207.007 101.355 205.804C102.699 208.479 103.459 211.408 103.584 214.399C103.709 217.389 103.196 220.372 102.079 223.149C100.962 225.927 99.2675 228.435 97.1068 230.507C94.9461 232.58 92.369 234.169 89.5467 235.17C86.7244 236.171 83.7214 236.56 80.7369 236.313C77.7524 236.065 74.8548 235.186 72.2364 233.733C69.6179 232.281 67.3385 230.288 65.5494 227.888C63.7603 225.488 62.5025 222.735 61.8594 219.811C62.6801 219.848 63.4824 219.904 64.2723 219.99Z" fill="black"/>
<path opacity="0.1" d="M58.2561 282.131C61.8949 282.299 65.5152 281.523 68.7658 279.88C72.0163 278.237 74.7867 275.782 76.808 272.753C78.8293 269.725 80.0328 266.225 80.3019 262.595C80.5709 258.964 79.8963 255.325 78.3434 252.032C76.6669 253.159 75.225 254.6 74.0976 256.275C72.5918 258.545 71.6847 261.167 69.9135 263.251C66.6243 267.112 61.0085 268.377 55.911 268.149C50.8136 267.92 45.8952 266.465 40.8224 266.002C40.1189 265.94 39.403 265.891 38.6934 265.873C39.7418 270.34 42.2188 274.344 45.749 277.278C49.2791 280.212 53.67 281.916 58.2561 282.131V282.131Z" fill="black"/>
<path opacity="0.1" d="M109.515 316.221C113.118 316.39 116.705 315.633 119.933 314.024C123.16 312.414 125.921 310.004 127.952 307.025C129.984 304.045 131.217 300.595 131.535 297.004C131.853 293.413 131.245 289.8 129.769 286.51C128.03 287.665 126.518 289.128 125.307 290.828C123.666 293.141 122.641 295.805 120.722 297.939C117.161 301.905 111.175 303.305 105.775 303.176C100.548 303.065 95.5126 301.782 90.3164 301.381C91.6029 305.526 94.1361 309.175 97.5713 311.831C101.007 314.486 105.177 316.019 109.515 316.221V316.221Z" fill="black"/>
<path opacity="0.1" d="M99.0918 357.187C101.215 361.323 104.645 364.641 108.849 366.628C113.053 368.614 117.796 369.157 122.34 368.173C126.885 367.188 130.977 364.731 133.981 361.183C136.985 357.635 138.732 353.195 138.952 348.553C139.099 345.634 138.63 342.717 137.576 339.992C135.838 341.132 134.279 342.523 132.947 344.118C130.941 346.585 129.615 349.336 127.294 351.618C122.974 355.849 116.007 357.601 109.805 357.786C106.225 357.798 102.648 357.598 99.0918 357.187V357.187Z" fill="black"/>
<path d="M266.114 410.163L184.654 426.816L182.803 426.631L111.217 419.415V328.748L198.848 313.945L262.412 321.346L262.43 321.747L262.436 321.944L266.114 410.163Z" fill="#1294FC"/>
<path opacity="0.1" d="M266.114 410.163L184.654 426.816L182.803 426.631V333.682L262.43 321.747L266.114 410.163Z" fill="black"/>
<path opacity="0.05" d="M262.436 321.945L262.412 321.963L182.803 333.682L111.217 328.748L198.848 313.945L262.412 321.346L262.43 321.747L262.436 321.945Z" fill="black"/>
<path d="M355.597 413.864L274.137 430.517L272.285 430.332L200.699 423.116V332.448L288.33 317.646L351.894 325.047L351.913 325.448L351.919 325.645L355.597 413.864Z" fill="#3F3D56"/>
<path opacity="0.1" d="M355.597 413.864L274.137 430.517L272.285 430.332V337.383L351.912 325.448L355.597 413.864Z" fill="black"/>
<path opacity="0.05" d="M351.919 325.645L351.894 325.664L272.285 337.383L200.699 332.448L288.33 317.646L351.894 325.047L351.913 325.448L351.919 325.645Z" fill="black"/>
<path d="M299.439 325.047L217.978 341.7L216.127 341.515L144.541 334.299V243.631L232.172 228.829L295.736 236.23L295.754 236.631L295.76 236.828L299.439 325.047Z" fill="#3F3D56"/>
<path opacity="0.1" d="M299.44 325.047L217.98 341.7L216.129 341.515V248.566L295.756 236.631L299.44 325.047Z" fill="black"/>
<path opacity="0.05" d="M295.76 236.828L295.736 236.847L216.127 248.566L144.541 243.631L232.172 228.829L295.736 236.23L295.754 236.631L295.76 236.828Z" fill="black"/>
<path d="M345.724 328.846L303.21 337.543L302.241 337.444L264.881 333.676V286.356L310.616 278.628L343.792 282.495L343.804 282.705V282.803L345.724 328.846Z" fill="#3F3D56"/>
<path opacity="0.1" d="M345.725 328.846L303.211 337.543L302.242 337.444V288.934L343.805 282.705L345.725 328.846Z" fill="black"/>
<path opacity="0.05" d="M343.805 282.803L343.792 282.816L302.241 288.934L264.881 286.356L310.616 278.628L343.792 282.495L343.805 282.705V282.803Z" fill="black"/>
<path d="M231.556 236.945L189.042 245.636L188.073 245.543L150.713 241.775V194.455L196.448 186.727L229.624 190.594L229.637 190.804V190.903L231.556 236.945Z" fill="#3F3D56"/>
<path opacity="0.1" d="M231.557 236.945L189.043 245.636L188.074 245.543V197.033L229.637 190.804L231.557 236.945Z" fill="black"/>
<path opacity="0.05" d="M229.637 190.903L229.624 190.915L188.073 197.033L150.713 194.455L196.448 186.727L229.624 190.594L229.637 190.804V190.903Z" fill="black"/>
<path d="M306.228 235.095L263.714 243.786L262.745 243.693L225.385 239.925V192.605L271.12 184.877L304.296 188.744L304.308 188.954V189.052L306.228 235.095Z" fill="#1294FC"/>
<path opacity="0.1" d="M306.228 235.095L263.715 243.786L262.746 243.693V195.183L304.309 188.953L306.228 235.095Z" fill="black"/>
<path opacity="0.05" d="M304.308 189.052L304.296 189.065L262.745 195.183L225.385 192.605L271.12 184.877L304.296 188.744L304.308 188.954V189.052Z" fill="black"/>
<path d="M328.444 187.603L285.931 196.293L284.962 196.201L247.602 192.432V145.113L293.336 137.384L326.513 141.252L326.525 141.461V141.56L328.444 187.603Z" fill="#3F3D56"/>
<path opacity="0.1" d="M328.445 187.603L285.932 196.293L284.963 196.201V147.691L326.526 141.461L328.445 187.603Z" fill="black"/>
<path opacity="0.05" d="M326.525 141.56L326.513 141.572L284.962 147.691L247.602 145.113L293.336 137.384L326.513 141.252L326.525 141.461V141.56Z" fill="black"/>
<path d="M357.4 90.8664C356.949 94.8755 353.889 98.1074 352.753 101.969C351.05 107.797 353.987 114.057 358.036 118.622C361.298 122.248 365.248 125.192 369.657 127.282C374.066 129.372 378.846 130.566 383.72 130.797C385.152 130.92 386.594 130.763 387.966 130.334C389.187 129.838 390.288 129.085 391.194 128.126C394.23 125.073 395.865 120.848 396.513 116.586C397.161 112.324 396.914 107.988 396.661 103.689C396.661 102.8 396.498 101.918 396.18 101.086C395.767 100.296 395.198 99.5975 394.507 99.0326C392.319 97.0223 389.906 95.2694 387.318 93.8085C386.207 93.1917 385.016 92.5749 384.306 91.5078C383.819 90.6581 383.503 89.7216 383.375 88.7508L382.579 84.7047C382.438 83.5381 382.039 82.4173 381.412 81.4234C380.011 79.5361 377.327 79.277 374.976 79.1845L366.336 78.8453C363.651 78.7404 360.122 77.9694 357.499 78.4999C355.03 78.9871 355.863 81.2446 356.308 83.2923C356.95 85.7689 357.317 88.3091 357.4 90.8664V90.8664Z" fill="#FFC0C6"/>
<path opacity="0.1" d="M357.4 90.8664C356.949 94.8755 353.889 98.1074 352.753 101.969C351.05 107.797 353.987 114.057 358.036 118.622C361.298 122.248 365.248 125.192 369.657 127.282C374.066 129.372 378.846 130.566 383.72 130.797C385.152 130.92 386.594 130.763 387.966 130.334C389.187 129.838 390.288 129.085 391.194 128.126C394.23 125.073 395.865 120.848 396.513 116.586C397.161 112.324 396.914 107.988 396.661 103.689C396.661 102.8 396.498 101.918 396.18 101.086C395.767 100.296 395.198 99.5975 394.507 99.0326C392.319 97.0223 389.906 95.2694 387.318 93.8085C386.207 93.1917 385.016 92.5749 384.306 91.5078C383.819 90.6581 383.503 89.7216 383.375 88.7508L382.579 84.7047C382.438 83.5381 382.039 82.4173 381.412 81.4234C380.011 79.5361 377.327 79.277 374.976 79.1845L366.336 78.8453C363.651 78.7404 360.122 77.9694 357.499 78.4999C355.03 78.9871 355.863 81.2446 356.308 83.2923C356.95 85.7689 357.317 88.3091 357.4 90.8664V90.8664Z" fill="black"/>
<path d="M412.267 271.436L408.601 311.601C407.645 322.136 406.67 332.713 404.794 343.112C404.176 346.696 403.386 350.261 402.485 353.795C399.98 363.608 396.345 373.199 395.173 383.259C395.136 383.549 395.105 383.876 395.074 384.141C394.833 386.361 394.623 388.606 393.84 390.679C393.222 392.215 392.352 393.615 391.717 395.132C390.482 398.167 390.285 401.522 390.131 404.809C385.682 402.299 380.811 400.627 375.758 399.875C373.289 399.511 370.605 399.258 368.97 397.408C367.118 395.397 367.334 392.319 367.643 389.618C368.614 381.23 369.581 372.846 370.543 364.466C370.864 360.86 371.483 357.287 372.395 353.783C372.728 352.617 373.129 351.47 373.536 350.323C374.098 348.744 374.666 347.165 375.091 345.543C375.682 342.936 376.09 340.292 376.313 337.629C377.307 329.192 378.504 320.773 379.553 312.341L379.609 311.897C381.182 299.117 382.38 286.276 382.034 273.404C381.985 271.498 381.904 269.592 381.781 267.68C381.608 264.91 381.355 263.442 383.632 261.709C386.169 259.797 389.507 258.459 392.408 257.207C393.969 256.528 411.162 250.422 411.539 251.767C412.337 254.623 412.752 257.572 412.773 260.537C412.808 264.177 412.639 267.815 412.267 271.436V271.436Z" fill="#605D82"/>
<path opacity="0.1" d="M404.795 343.113C404.178 346.696 403.388 350.261 402.487 353.795C399.982 363.608 396.347 373.199 395.175 383.259C395.138 383.549 395.107 383.876 395.076 384.141C387.411 373.199 380.956 361.431 373.477 350.372C374.038 348.793 374.606 347.214 375.032 345.592C375.645 342.971 376.074 340.31 376.315 337.629C377.309 329.192 378.506 320.773 379.555 312.341L379.611 311.897C380.044 313.686 380.664 315.425 381.462 317.084C386.485 327.286 398.421 332.442 404.259 342.206C404.452 342.51 404.631 342.812 404.795 343.113Z" fill="black"/>
<path d="M342.601 253.42C342.854 261.598 344.162 269.709 345.47 277.789L348.167 294.442C349.642 303.571 351.185 312.878 355.505 321.05C358.738 327.169 363.391 332.387 367.606 337.87C377.962 351.353 385.744 366.63 395.562 380.508C398.419 384.542 402.498 388.909 407.368 388.064C410.564 387.515 412.885 384.85 415.39 382.803C418.352 380.385 421.919 378.615 424.252 375.58C426.585 372.545 427.041 367.512 423.882 365.354C422.802 364.62 421.487 364.342 420.265 363.873C415.372 362.023 412.2 357.237 410.188 352.401C408.176 347.566 406.948 342.379 404.263 337.882C398.425 328.119 386.484 322.962 381.461 312.754C378.647 307.043 378.375 300.419 378.165 294.084L377.616 277.857C377.554 276.08 377.511 274.236 378.233 272.614C380.152 268.297 385.953 267.89 390.656 267.341C395.989 266.718 401.155 265.09 405.88 262.542C408.589 261.08 411.231 259.218 412.669 256.504C413.989 254.037 414.168 251.132 414.322 248.331L415.952 218.917C416.094 216.388 416.217 213.767 415.335 211.398C413.094 205.44 405.566 203.491 399.203 203.775C387.367 204.305 376.444 209.394 365.261 212.835C362.49 213.687 359.707 214.451 356.85 215.025C354.381 215.525 351.296 215.321 348.926 216.123C344.68 217.554 344.785 226.843 344.187 230.691C342.952 238.202 342.421 245.811 342.601 253.42V253.42Z" fill="#605D82"/>
<path d="M405.763 389.31C406.806 390.364 407.145 391.906 407.417 393.362C408.925 401.44 409.71 409.637 409.762 417.854C409.694 418.621 409.846 419.391 410.2 420.075C410.496 420.48 410.894 420.799 411.354 421C414.372 422.437 417.871 420.433 420.389 418.231C425.048 414.154 428.992 408.677 429.257 402.49C429.325 400.899 429.146 399.289 429.424 397.716C429.831 395.385 431.195 393.356 432.392 391.32C434.44 387.851 436.096 384.165 437.329 380.329C437.786 378.886 438.094 377.073 436.959 376.067C436.561 375.751 436.106 375.515 435.619 375.37L421.981 370.313C420.796 369.875 417.859 377.418 417.396 378.244C416.254 380.261 415.119 381.402 412.829 381.871C410.54 382.34 407.713 381.661 405.529 382.827C401.826 384.795 403.671 387.206 405.763 389.31Z" fill="#535070"/>
<path d="M384.733 393.966C384.48 393.463 384.127 393.016 383.696 392.653C383.066 392.252 382.348 392.008 381.604 391.943C379.012 391.499 375.939 391.209 374.143 393.14C372.464 394.947 372.754 397.889 371.353 399.924C370.909 400.541 370.304 401.096 369.922 401.775C369.446 402.813 369.234 403.953 369.305 405.093C369.23 408.233 369.156 411.384 369.379 414.518C369.558 417.145 369.996 419.902 371.643 421.962C374.285 425.268 379.049 425.743 383.27 425.953L386.695 426.132C387.637 426.242 388.591 426.154 389.497 425.873C390.058 425.615 390.561 425.246 390.977 424.79C391.393 424.333 391.712 423.797 391.916 423.214C393.699 418.786 390.879 414.018 389.139 409.577C387.133 404.464 387.491 398.796 384.733 393.966Z" fill="#535070"/>
<path d="M356.412 68.2612C356.369 67.8122 356.434 67.3594 356.604 66.9413C357.104 66.0593 358.412 66.3245 359.399 66.5465C363.367 67.5457 367.551 66.6391 371.643 66.8734C375.734 67.1078 380.338 69.1494 381.159 73.1585C384.127 71.0589 386.685 68.4332 388.706 65.4117C389.842 63.7155 390.829 61.7726 390.675 59.7372C390.453 56.8014 387.99 54.6056 385.738 52.7429L378.95 47.1919C378.055 46.3721 377.023 45.7164 375.901 45.2552C374.334 44.7186 372.618 44.9776 370.964 44.9776C366.027 44.9776 360.732 42.7264 356.332 44.9776C354.481 45.9213 353.105 47.5434 351.772 49.1224L345.705 56.3018C345.246 56.7594 344.911 57.326 344.73 57.9486C344.557 58.8244 345.008 59.6879 345.168 60.5699C345.452 62.1735 344.761 63.8882 345.292 65.4302C346.174 67.9837 349.285 68.3476 351.185 69.8155C351.889 70.3583 353 72.2148 353.845 72.1901C355.332 72.1593 356.369 69.4454 356.412 68.2612Z" fill="#3F3D56"/>
<path d="M366.705 89.4355C377.441 89.4355 386.144 80.737 386.144 70.0068C386.144 59.2766 377.441 50.5781 366.705 50.5781C355.969 50.5781 347.266 59.2766 347.266 70.0068C347.266 80.737 355.969 89.4355 366.705 89.4355Z" fill="#FFC0C6"/>
<path d="M371.261 112.522C370.602 110.639 369.362 109.013 367.719 107.88C366.077 106.747 364.116 106.165 362.121 106.218C361.549 106.327 360.957 106.252 360.43 106.002C360.132 105.775 359.892 105.478 359.733 105.139C358.554 103.012 357.605 100.767 356.9 98.4405C356.592 97.4105 356.166 96.1954 355.123 95.9302C354.284 95.7144 353.426 96.2571 352.864 96.9171C352.366 97.6253 351.826 98.3029 351.247 98.9463C348.779 101.13 344.459 99.1375 341.873 101.142C341.447 101.469 341.096 101.888 340.639 102.191C340.195 102.461 339.715 102.669 339.213 102.807C334.194 104.439 329.273 106.361 324.477 108.562C326.205 118.949 327.969 129.533 332.018 139.247C333.943 143.873 336.122 148.406 337.664 153.174C341.083 163.739 341.231 175.045 341.275 186.153C341.275 193.752 341.275 201.511 338.806 208.703C338.251 210.331 337.572 211.947 337.418 213.637C337.263 215.327 337.769 217.239 339.158 218.251C339.962 218.781 340.884 219.105 341.842 219.194C346.107 219.811 350.402 218.689 354.598 217.714C365.848 215.111 377.327 213.619 388.774 212.163L407.967 209.696C409.344 209.6 410.691 209.251 411.941 208.666C415.453 206.748 415.786 201.468 413.601 198.113C412.558 196.503 411.083 195.183 410.201 193.481C409.318 191.778 409.251 189.385 410.762 188.207C413.848 185.802 412.922 181.342 413.071 177.444C413.482 166.54 413.426 155.643 412.904 144.755C412.747 142.497 412.71 140.232 412.793 137.97C413.009 134.134 413.959 130.378 414.91 126.646L420.741 103.702C419.217 101.296 416.298 99.7666 413.54 99.0758C410.781 98.385 407.899 98.1815 405.178 97.3365C399.623 95.6095 394.637 91.2303 388.818 91.6374C388.376 91.6453 387.942 91.7506 387.546 91.9458C386.238 92.6921 386.442 94.5795 386.362 96.0844C386.176 99.4212 383.72 102.203 381.017 104.158C378.314 106.113 375.216 107.532 372.729 109.759C372.297 110.084 371.942 110.5 371.688 110.977C371.435 111.455 371.289 111.982 371.261 112.522V112.522Z" fill="#3F3D56"/>
<path d="M294.238 134.288C292.951 135.125 291.582 135.829 290.153 136.391C288.795 136.928 287.345 137.353 286.234 138.291C285.684 138.768 285.223 139.338 284.871 139.975C284.213 141.141 283.88 142.462 283.908 143.801C283.935 145.139 284.321 146.446 285.026 147.584C285.731 148.723 286.728 149.652 287.915 150.273C289.101 150.895 290.432 151.188 291.77 151.12C293.553 151.028 295.238 150.306 296.874 149.597L310.586 143.632C312.906 142.627 315.412 141.455 316.51 139.173C316.636 138.959 316.684 138.709 316.646 138.464C316.54 138.195 316.338 137.975 316.078 137.847C312.988 135.838 310.285 133.289 308.099 130.322C307.537 129.557 306.865 127.756 306.05 127.294C303.15 125.684 296.565 132.783 294.238 134.288Z" fill="#FFC0C6"/>
<path d="M440.816 129.446L445.87 135.219C446.957 136.453 448.043 137.686 449.03 139.019C451.46 142.363 453.408 146.032 454.819 149.917C455.917 152.798 456.83 155.869 456.448 158.928C456.191 160.497 455.767 162.033 455.183 163.511C454.257 166.352 453.107 169.116 451.745 171.776C450.608 173.794 449.323 175.726 447.901 177.555C443.986 182.74 439.702 187.635 435.083 192.204C433.355 193.912 432.615 196.682 431.88 198.989C430.492 203.251 427.19 206.575 424 209.721C422.973 210.805 421.838 211.78 420.612 212.632C418.775 213.816 416.626 214.426 414.44 214.383C413.487 214.389 412.543 214.193 411.67 213.81C409.485 212.774 408.374 210.251 408.146 207.846C407.944 205.66 408.31 203.459 409.207 201.456C412.108 195.035 419.556 192.253 424.82 187.566C427.906 184.821 430.27 181.367 432.602 177.956C434.182 175.824 435.502 173.511 436.533 171.067C437.706 167.927 437.249 164.214 438.28 161.032C438.712 159.681 439.514 158.466 439.952 157.127C440.39 155.789 440.538 154.204 439.718 153.05C439.103 152.313 438.317 151.737 437.428 151.373C434.065 149.671 430.3 147.475 429.659 143.756C429.402 141.696 429.94 139.616 431.164 137.939C432.382 136.284 433.807 134.792 435.404 133.498C436.867 132.179 439.341 130.717 440.816 129.446Z" fill="#FFC0C6"/>
<path d="M290.991 142.343C290.102 140.542 288.985 138.704 287.183 137.81C286.306 137.432 285.361 137.237 284.406 137.237C283.451 137.237 282.506 137.432 281.629 137.81C279.883 138.564 278.247 139.552 276.766 140.746L272.409 143.959C271.422 144.607 270.548 145.414 269.823 146.346C269.133 147.478 268.675 148.736 268.478 150.047C267.861 153.051 267.361 156.141 267.793 159.181C268.484 164.116 271.446 168.384 274.705 172.134C276.741 174.465 279.259 176.821 282.357 176.926C283.696 176.969 285.184 176.439 285.739 175.224C285.933 174.741 286.035 174.227 286.041 173.707C286.375 168.23 284.412 162.882 282.129 157.892C281.512 156.535 280.845 155.129 280.895 153.643C280.876 153.39 280.941 153.139 281.08 152.927C281.276 152.722 281.538 152.593 281.82 152.563C284.949 151.947 290.343 154.377 292.534 150.904C293.953 148.61 292.003 144.385 290.991 142.343Z" fill="#FFC0C6"/>
<path d="M355.388 62.1489C355.35 61.6995 355.417 61.2474 355.586 60.829C356.086 59.9408 357.394 60.2122 358.381 60.4342C362.349 61.4334 366.533 60.5268 370.625 60.7611C374.717 60.9955 379.314 63.0371 380.141 67.0462C383.106 64.9432 385.664 62.3181 387.688 59.2994C388.824 57.597 389.811 55.6542 389.657 53.6188C389.435 50.6829 386.966 48.4871 384.72 46.6306L377.932 41.0796C377.04 40.2598 376.01 39.6042 374.889 39.1429C373.316 38.6063 371.606 38.8653 369.952 38.8653C365.015 38.8653 359.72 36.614 355.32 38.8653C353.469 39.809 352.093 41.4311 350.76 43.0101L344.687 50.1895C344.231 50.6481 343.898 51.2146 343.719 51.8363C343.546 52.7121 343.996 53.5756 344.157 54.4576C344.441 56.0612 343.749 57.7759 344.28 59.3117C345.163 61.8713 348.273 62.2353 350.174 63.7032C350.877 64.246 351.988 66.1025 352.833 66.0778C354.296 66.047 355.333 63.3331 355.388 62.1489Z" fill="#3F3D56"/>
<path d="M314.102 115.39C313.319 115.898 312.63 116.539 312.066 117.283C311.356 118.363 311.208 119.75 310.597 120.861C309.289 123.291 306.222 124.16 304.315 126.153C304.006 126.425 303.79 126.787 303.698 127.189C303.686 127.731 303.868 128.26 304.21 128.681L313.43 143.164C316.515 143.435 319.441 141.511 322.514 141.77C323.655 141.862 324.834 142.257 325.933 141.918C326.718 141.568 327.454 141.118 328.123 140.579C329.975 139.42 332.394 139.284 333.931 137.761C335.467 136.237 335.597 133.998 335.578 131.92C335.606 130.116 335.422 128.315 335.029 126.554C333.671 121.002 329.419 116.722 326.753 111.8C325.451 109.401 324.748 108.001 322.002 109.647C319.255 111.294 316.701 113.49 314.102 115.39Z" fill="#3F3D56"/>
<path d="M426.053 108.069C427.786 109.193 429.349 110.56 430.694 112.127C432.095 113.934 432.891 116.155 434.243 118.005C435.594 119.855 437.328 121.188 438.809 122.841C441.062 125.345 442.586 128.392 444.08 131.42C440.424 136.174 436.44 140.667 432.157 144.866C431.679 145.427 431.049 145.839 430.342 146.05C429.863 146.102 429.379 146.033 428.933 145.851C428.487 145.669 428.094 145.379 427.788 145.008C427.121 144.317 426.652 143.453 426.016 142.732C424.519 141.188 422.523 140.225 420.382 140.012C418.259 139.805 416.123 139.774 413.995 139.919C413.528 139.975 413.055 139.895 412.631 139.691C412.316 139.475 412.061 139.182 411.891 138.84C409.422 134.596 410.193 129.267 411.076 124.419L413.094 113.317C413.388 111.198 413.955 109.125 414.779 107.15C415.544 105.515 417.247 102.74 419.358 103.233C421.468 103.726 424.27 106.786 426.053 108.069Z" fill="#3F3D56"/>
<path d="M250.069 189.453L207.556 198.144L206.587 198.051L169.227 194.283V146.963L214.961 139.235L248.138 143.102L248.15 143.312V143.41L250.069 189.453Z" fill="#1294FC"/>
<path opacity="0.1" d="M250.07 189.453L207.557 198.144L206.588 198.051V149.541L248.151 143.312L250.07 189.453Z" fill="black"/>
<path opacity="0.05" d="M248.15 143.41L248.138 143.423L206.587 149.541L169.227 146.963L214.961 139.235L248.138 143.102L248.15 143.312V143.41Z" fill="black"/>
<path d="M272.286 142.578L229.773 151.274L228.804 151.176L191.443 147.407V100.087L237.178 92.359L270.355 96.2262L270.367 96.436V96.5346L272.286 142.578Z" fill="#3F3D56"/>
<path opacity="0.1" d="M272.287 142.578L229.774 151.274L228.805 151.175V102.665L270.368 96.4359L272.287 142.578Z" fill="black"/>
<path opacity="0.05" d="M270.367 96.5346L270.355 96.547L228.804 102.665L191.443 100.087L237.178 92.359L270.355 96.2262L270.367 96.4359V96.5346Z" fill="black"/>
</g>
<defs>
<clipPath id="clip0">
<rect width="586" height="434" fill="white" transform="translate(0 0.649414)"/>
</clipPath>
</defs>
</svg>
